<svg xmlns="http://www.w3.org/2000/svg" viewBox="0 0 20 20" id="svg10271295863"><path d="M 5 20 C 2.239 20 0 20 0 20 L 0 0 C 0 0 2.239 0 5 0 L 15 0 C 17.761 0 20 0 20 0 L 20 20 C 20 20 17.761 20 15 20 Z" fill="var(--token-302c6315-8654-407c-ab3a-d21ffa516a16, rgb(30, 30, 30))"/><path d="M 14.039 15.651 L 9.087 15.651 C 8.915 15.651 8.829 15.443 8.95 15.321 L 10.547 13.724 C 10.584 13.688 10.633 13.667 10.684 13.667 L 12.621 13.667 C 13.197 13.667 13.665 13.2 13.665 12.624 L 13.665 10.687 C 13.665 10.636 13.685 10.586 13.721 10.55 L 15.318 8.953 C 15.44 8.831 15.648 8.918 15.648 9.09 L 15.648 14.042 C 15.648 14.931 14.928 15.651 14.039 15.651 Z M 6.337 9.308 C 6.337 9.359 6.317 9.408 6.28 9.444 L 4.683 11.041 C 4.562 11.163 4.354 11.077 4.354 10.905 L 4.354 5.965 C 4.354 5.077 5.074 4.356 5.962 4.356 L 10.902 4.356 C 11.074 4.356 11.16 4.565 11.039 4.686 L 9.441 6.283 C 9.405 6.319 9.356 6.34 9.305 6.34 L 7.381 6.34 C 6.804 6.34 6.337 6.807 6.337 7.384 Z" fill="var(--token-14d4735a-535d-4aeb-9e39-0d05a065aed0, rgb(255, 255, 255))"/><path d="M 15.412 5.999 C 15.46 5.951 15.49 5.888 15.497 5.821 L 15.497 5.821 C 15.582 5.017 14.999 4.434 14.195 4.519 L 14.195 4.519 C 14.12 4.527 14.051 4.56 13.998 4.613 L 4.604 14.007 C 4.551 14.06 4.517 14.13 4.509 14.205 L 4.509 14.205 C 4.425 15.009 5.008 15.592 5.811 15.507 L 5.811 15.507 C 5.879 15.5 5.942 15.47 5.989 15.422 Z" fill="var(--token-14d4735a-535d-4aeb-9e39-0d05a065aed0, rgb(255, 255, 255))"/></svg>